<svg width="14" height="24" viewBox="0 0 14 24" fill="none" xmlns="http://www.w3.org/2000/svg">
<path d="M8.43053 23.9531H4.57962C3.9364 23.9531 3.41316 23.4309 3.41316 22.7889V14.12H1.16646C0.523239 14.12 0 13.5976 0 12.9558V9.24115C0 8.59918 0.523239 8.07697 1.16646 8.07697H3.41316V6.2168C3.41316 4.37238 3.99346 2.80316 5.09112 1.67908C6.19374 0.549866 7.73465 -0.046875 9.54727 -0.046875L12.4842 -0.0421143C13.1263 -0.0410156 13.6486 0.481201 13.6486 1.12207V4.57105C13.6486 5.21301 13.1256 5.73523 12.4825 5.73523L10.5051 5.73596C9.90209 5.73596 9.74853 5.85663 9.71569 5.89362C9.66157 5.95496 9.59717 6.12836 9.59717 6.60718V8.07678H12.3339C12.5399 8.07678 12.7395 8.1275 12.9111 8.22308C13.2811 8.42944 13.5112 8.81964 13.5112 9.24133L13.5097 12.956C13.5097 13.5976 12.9865 14.1198 12.3433 14.1198H9.59717V22.7889C9.59717 23.4309 9.07375 23.9531 8.43053 23.9531ZM4.8229 22.5461H8.18725V13.4901C8.18725 13.0615 8.53675 12.7128 8.96606 12.7128H12.1L12.1013 9.48395H8.96588C8.53657 9.48395 8.18725 9.13532 8.18725 8.70667V6.60718C8.18725 6.0575 8.24321 5.43237 8.65894 4.96253C9.16126 4.39453 9.95291 4.32898 10.5048 4.32898L12.2389 4.32825V1.3645L9.54617 1.36011C6.63313 1.36011 4.8229 3.22119 4.8229 6.2168V8.70667C4.8229 9.13513 4.47358 9.48395 4.04428 9.48395H1.40974V12.7128H4.04428C4.47358 12.7128 4.8229 13.0615 4.8229 13.4901V22.5461Z" fill="#1E4620"/>
</svg>
